<svg width="29" height="66" viewBox="0 0 29 66" fill="none" xmlns="http://www.w3.org/2000/svg">
<g clip-path="url(#clip0_1065_4534)">
<path d="M1.47879 64.3425C1.47879 64.1682 1.47879 63.9954 1.47879 63.8241C1.47879 63.0336 1.48339 62.2445 1.47267 61.454C1.42213 57.5639 1.46654 53.6692 1.28122 49.7868C1.14185 46.8616 1.3287 43.9364 1.13419 41.0234C0.961123 38.43 1.17095 35.8351 0.984096 33.2539C0.775803 30.3807 1.01932 27.506 0.830939 24.6419C0.644088 21.7947 0.864634 18.9444 0.671656 16.1079C0.497057 13.539 0.682377 10.9731 0.532283 8.41334C0.423542 6.50805 0.408226 4.60735 0.4021 2.70359C0.4021 2.45282 0.4021 2.20357 0.4021 1.91304C0.573635 1.89469 0.693098 1.87481 0.81256 1.87175C2.56468 1.81517 4.31679 1.76777 6.06738 1.70355C7.05371 1.66685 8.04923 1.6745 9.02178 1.53229C9.98666 1.39008 10.9561 1.50935 11.9042 1.37937C12.9457 1.23564 13.9917 1.36255 15.0148 1.22188C15.9797 1.08884 16.9385 1.13624 17.8988 1.0919C18.784 1.05061 19.6784 1.06285 20.5484 0.922167C21.5378 0.76008 22.5241 0.831949 23.5104 0.787605C24.5228 0.741731 25.5352 0.698916 26.546 0.630105C27.0928 0.593406 27.6365 0.507775 28.2353 0.438965C28.2568 0.724911 28.2874 0.919109 28.2843 1.11331C28.2353 3.70364 28.2751 6.30009 28.096 8.88125C27.9673 10.7376 28.1235 12.594 27.952 14.435C27.7728 16.3663 27.9719 18.3006 27.7942 20.2166C27.6334 21.9445 27.8095 23.674 27.6487 25.3881C27.4695 27.2919 27.661 29.2033 27.4879 31.0933C27.3302 32.8212 27.5078 34.5506 27.3424 36.2648C27.154 38.2205 27.3608 40.1808 27.1816 42.1228C27.0223 43.8507 27.1954 45.5786 27.0392 47.2943C26.8646 49.1981 27.0422 51.1079 26.8738 52.9995C26.7313 54.6005 26.8753 56.1999 26.739 57.7902C26.5583 59.8958 26.641 62.0029 26.5889 64.107C26.5797 64.5 26.471 64.8914 26.4005 65.3334C25.7526 65.2875 25.1262 65.4435 24.5029 65.2187C24.3436 65.1606 24.1506 65.1927 23.9714 65.1912C23.0525 65.185 22.1335 65.1988 21.2146 65.1743C19.8193 65.1376 18.4149 65.159 17.0334 64.9985C15.8633 64.8624 14.6916 64.9985 13.5368 64.8548C12.114 64.6789 10.6851 64.8517 9.27755 64.6927C8.05689 64.555 6.84235 64.6254 5.62782 64.5658C4.28463 64.4985 2.94297 64.422 1.48032 64.3425H1.47879ZM11.1062 7.76499C11.1736 8.96688 11.2349 10.1305 11.3084 11.2927C11.3467 11.8982 11.4003 12.5022 11.4539 13.1077C11.5963 14.695 11.7526 16.2791 11.8812 17.8679C11.9624 18.8786 12.0007 19.894 12.0665 20.9063C12.1125 21.6142 12.1646 22.3207 12.2289 23.0272C12.3652 24.5379 12.5199 26.0487 12.6455 27.5595C12.7251 28.5198 12.7603 29.4831 12.8231 30.4434C12.8721 31.2018 12.9257 31.9603 12.9931 32.7157C13.0758 33.6454 13.1938 34.5736 13.2642 35.5048C13.3423 36.5155 13.3791 37.5293 13.4434 38.5416C13.4878 39.2496 13.5414 39.9561 13.6058 40.6625C13.6915 41.6182 13.8049 42.5724 13.8814 43.5296C13.9565 44.4639 13.9856 45.4028 14.0637 46.3371C14.0851 46.5986 14.2123 46.8524 14.3026 47.1429C15.1955 47.1001 16.0256 47.1903 16.8695 47.0787C16.9492 46.5863 17.0472 46.1689 17.0794 45.7468C17.2034 44.0541 17.306 42.3598 17.4148 40.6656C17.4224 40.5387 17.4194 40.4102 17.4316 40.2833C17.5251 39.2511 17.6307 38.222 17.7119 37.1884C17.7824 36.3045 17.8084 35.4176 17.8834 34.5338C18.0152 32.9726 18.179 31.4129 18.3092 29.8501C18.3904 28.8638 18.4302 27.8745 18.4945 26.8882C18.542 26.1542 18.5895 25.4218 18.6554 24.6893C18.7901 23.1785 18.9494 21.6693 19.0735 20.1585C19.1562 19.1478 19.1929 18.1324 19.2573 17.1202C19.3047 16.3877 19.3553 15.6553 19.4196 14.9228C19.5054 13.9411 19.6126 12.9625 19.6999 11.9808C19.8025 10.8217 19.899 9.66263 19.9863 8.50202C20.0047 8.26042 19.9756 8.01423 19.9694 7.79557C19.3415 7.63501 12.0282 7.60902 11.1047 7.7604L11.1062 7.76499ZM19.7183 56.5807C19.948 54.4873 17.6231 52.29 15.5769 52.2823C13.5307 52.2747 11.2992 54.0836 11.3084 56.5562C11.3161 58.7887 13.1938 60.6772 15.4743 60.7613C17.5404 60.8377 19.9097 58.7138 19.7183 56.5807Z" fill="black"/>
<path d="M11.1062 7.76506C12.0297 7.61368 19.3415 7.63968 19.9709 7.80023C19.9771 8.0189 20.0062 8.26509 19.9878 8.50669C19.9005 9.66729 19.804 10.8264 19.7014 11.9854C19.6141 12.9671 19.5069 13.9458 19.4211 14.9275C19.3568 15.6584 19.3047 16.3908 19.2587 17.1248C19.1944 18.1371 19.1577 19.1524 19.075 20.1632C18.9509 21.6755 18.7916 23.1832 18.6568 24.694C18.591 25.4264 18.5435 26.1589 18.496 26.8928C18.4317 27.8807 18.3919 28.87 18.3107 29.8548C18.1821 31.4175 18.0166 32.9757 17.8849 34.5385C17.8099 35.4223 17.7838 36.3092 17.7134 37.193C17.6322 38.2252 17.5265 39.2558 17.4331 40.2879C17.4224 40.4149 17.4255 40.5433 17.4163 40.6702C17.306 42.3645 17.2034 44.0588 17.0809 45.7515C17.0502 46.1735 16.9507 46.591 16.871 47.0834C16.0271 47.195 15.197 47.1048 14.3041 47.1476C14.2153 46.8555 14.0882 46.6032 14.0652 46.3417C13.9856 45.4075 13.9565 44.4686 13.8829 43.5343C13.8064 42.577 13.693 41.6229 13.6073 40.6672C13.5429 39.9607 13.4909 39.2543 13.4449 38.5463C13.3806 37.534 13.3423 36.5202 13.2657 35.5094C13.1937 34.5782 13.0773 33.65 12.9946 32.7203C12.9272 31.9634 12.8736 31.205 12.8246 30.4481C12.7618 29.4862 12.7266 28.5229 12.647 27.5641C12.5214 26.0518 12.3652 24.5426 12.2304 23.0318C12.1676 22.3254 12.114 21.6174 12.068 20.9109C12.0022 19.8986 11.9654 18.8833 11.8827 17.8726C11.7541 16.2853 11.5963 14.6996 11.4554 13.1124C11.4018 12.5084 11.3482 11.9029 11.3099 11.2973C11.2379 10.1352 11.1767 8.97154 11.1077 7.76965L11.1062 7.76506Z" fill="white"/>
<path d="M19.7182 56.5811C19.9097 58.7142 17.5403 60.8382 15.4742 60.7617C13.1953 60.6776 11.316 58.7892 11.3084 56.5566C11.2992 54.084 13.5307 52.2751 15.5769 52.2827C17.6246 52.2904 19.948 54.4877 19.7182 56.5811Z" fill="white"/>
</g>
<defs>
<clipPath id="clip0_1065_4534">
<rect width="27.8822" height="64.9051" fill="white" transform="translate(0.4021 0.4375)"/>
</clipPath>
</defs>
</svg>
