<svg width="16" height="24" viewBox="0 0 16 24" fill="none" xmlns="http://www.w3.org/2000/svg">
<path d="M14.596 9.71946C14.2066 9.71946 13.9469 9.58963 13.6873 9.32999L7.19611 2.83883C6.67682 2.31954 6.67682 1.5406 7.19611 1.02131C7.7154 0.502013 8.49434 0.502013 9.01363 1.02131L15.5048 7.51246C16.0241 8.03175 16.0241 8.81069 15.5048 9.32999C15.2451 9.58963 14.9855 9.71946 14.596 9.71946Z" fill="black"/>
<path d="M1.61366 9.71946C1.22419 9.71946 0.964545 9.58963 0.704899 9.32999C0.185607 8.81069 0.185607 8.03175 0.704899 7.51246L7.19606 1.02131C7.71535 0.502013 8.49429 0.502013 9.01358 1.02131C9.53287 1.5406 9.53287 2.31954 9.01358 2.83883L2.52242 9.32999C2.26278 9.58963 2.00313 9.71946 1.61366 9.71946Z" fill="black"/>
<path d="M8.10487 24C7.32593 24 6.80664 23.4807 6.80664 22.7018L6.80664 1.93007C6.80664 1.15113 7.32593 0.631836 8.10487 0.631836C8.88381 0.631836 9.4031 1.15113 9.4031 1.93007L9.4031 22.7018C9.4031 23.4807 8.88381 24 8.10487 24Z" fill="black"/>
</svg>
