<svg width="33" height="22" viewBox="0 0 33 22" fill="none" xmlns="http://www.w3.org/2000/svg">
<path d="M19.8018 19.9844C19.8018 19.4476 19.9808 19.0897 20.3387 18.7318L29.286 9.7844C30.0018 9.06861 31.0755 9.06861 31.7913 9.7844C32.5071 10.5002 32.5071 11.5739 31.7913 12.2897L22.8439 21.237C22.1281 21.9528 21.0544 21.9528 20.3387 21.237C19.9808 20.8791 19.8018 20.5212 19.8018 19.9844Z" fill="black"/>
<path d="M19.8018 2.08928C19.8018 1.55244 19.9808 1.19454 20.3387 0.836646C21.0544 0.120857 22.1281 0.120857 22.8439 0.836646L31.7913 9.78402C32.5071 10.4998 32.5071 11.5735 31.7913 12.2893C31.0755 13.0051 30.0018 13.0051 29.286 12.2893L20.3387 3.34191C19.9808 2.98401 19.8018 2.62612 19.8018 2.08928Z" fill="black"/>
<path d="M0.117599 11.037C0.117599 9.96335 0.833389 9.24756 1.90707 9.24756L30.5387 9.24756C31.6123 9.24756 32.3281 9.96335 32.3281 11.037C32.3281 12.1107 31.6123 12.8265 30.5387 12.8265L1.90707 12.8265C0.833389 12.8265 0.117599 12.1107 0.117599 11.037Z" fill="black"/>
</svg>
