<?xml version="1.0" encoding="UTF-8"?>
<svg id="Capa_2" data-name="Capa 2" xmlns="http://www.w3.org/2000/svg" viewBox="0 0 197.29 148.33">
  <defs>
    <style>
      .cls-1 {
        fill: #000;
        stroke-width: 0px;
      }
    </style>
  </defs>
  <g id="Capa_1-2" data-name="Capa 1">
    <path class="cls-1" d="M98.75.15c25.54,0,51.08.04,76.62-.02,11.33-1.18,22.38,7.98,21.76,19.68.12,35.6-.41,71.26.09,106.87.55,6.55-2.44,13.27-7.56,17.13-3.98,3.11-8.57,4.67-13.43,4.51-51.73-.23-103.48-.24-155.2,0-4.49.15-8.66-1.17-12.46-3.87C3.02,140.66-.48,133.59.05,126.65c.41-35.33.38-70.64,0-105.99C-.44,9.26,9.89-.56,21.15.03c25.8.39,51.61.12,77.41.12h.18ZM29.6,47.31c-.81,30.37,0,60.78-.28,90.76.01.59.13,1.07.48,1.32,45.94.53,92.12.54,137.73,0,1.37-30.01.02-60.53.48-91.01-.02-.76-.18-1.24-.88-1.07-1.81.69-3.55,1.78-5.14,2.92-20.17,14.53-40.46,29.03-60.63,43.55-2.62,1.88-3.56,1.27-5.92-.41-20.52-14.81-41.16-29.43-61.7-44.21-1.21-.77-2.63-1.99-4.05-1.9l-.09.06ZM30.94,9.13c-.36,1.37,4.08,3.4,5.12,4.32,19.64,12.92,38.68,26.75,58.02,40.15,3.44,2.45,4.82,3.39,8.54.55,19.82-14.16,40.22-27.42,60-41.59,1.19-1.06,3.42-2.21,4.34-3.5-45.69-.45-90.99-.43-135.96,0l-.06.08ZM177.89,11.41c-25.82,15.35-49.51,35.37-74.5,52.36-1.42,1.03-3.24,2.32-4.98,2.14-1.53-.07-3.33-1.36-4.6-2.29-13.33-9.57-26.81-18.91-40.25-28.33-12.14-8.52-23.79-16.33-35.87-24.82-.76-.58-3.28-.83-4.11-.35-1.48.89-2.4,1.55-3.53,3.03-3.47,3.97-.35,8.85,3.24,11.5,3.67,3.07,7.64,5.73,11.53,8.51,23.14,16.42,46.37,32.74,69.3,49.47,1.36,1.02,3.14,2.27,4.8,2.15,1.48-.01,2.97-1,4.2-1.89,10.08-7.14,20.15-14.31,30.2-21.5,13.92-9.93,27.79-19.89,41.63-29.99,3.57-2.65,7.01-5.23,10.45-8.12,1.61-1.34,3.1-3.35,3.31-5.1.15-.78.11-1.62-.08-2.46-1.17-5.15-6.19-7.01-10.73-4.32ZM20.43,139.24c1.19-31.68.05-63.98.46-95.86.01-2.41-1.15-4.27-3.25-5.29-2.51-1.38-4.33-3.81-7.21-4.76-1.54-.55-2,.56-1.99,2.07-.06,31.01-.06,62.03.02,93.05-.44,6.32,3.72,11.18,10.6,11.18.42,0,.97-.03,1.26-.28l.12-.1ZM188.27,32.38c-.17-.08-.41-.02-.68.13-2.54,1.69-4.89,3.45-7.53,4.96-3.2,1.61-3.89,5.22-3.68,8.54.27,31.01-.27,62.03.26,93.03.05.96.54,1.44,1.38,1.28,2.02-.4,3.92-.71,5.71-1.72,3.3-1.83,4.83-4.82,5.15-8.52.19-31-.03-62.07.04-93.02,0-1.29-.08-2.4-.24-3.9-.05-.23-.11-.59-.3-.73l-.1-.06Z"/>
  </g>
</svg>