<?xml version="1.0" encoding="UTF-8"?>
<svg id="Capa_2" data-name="Capa 2" xmlns="http://www.w3.org/2000/svg" viewBox="0 0 156.86 157.73">
  <defs>
    <style>
      .cls-1 {
        fill: #000;
        stroke-width: 0px;
      }
    </style>
  </defs>
  <g id="Capa_1-2" data-name="Capa 1">
    <g>
      <path class="cls-1" d="M.03,78.59C.03,66.66.09,54.74,0,42.82c-.06-8.53,3.1-16.01,7.48-23.03C12.23,12.18,19.01,6.72,27.35,3.59c4.57-1.71,9.55-3.16,14.36-3.22,24.5-.32,49.02-.66,73.5.05,13.72.4,25.11,6.53,33.27,18.37,5.84,8.47,8.45,17.46,8.38,27.62-.16,22.35.02,44.71-.07,67.06-.07,17.34-8.25,30.29-22.86,38.86-5.85,3.43-12.68,5.38-19.82,5.36-23.84-.08-47.68.2-71.52-.12-13.07-.18-24.06-5.82-32.39-15.84-3.9-4.69-6.6-10.21-8.5-16.26C.22,120.72.06,116.12.03,111.37c-.06-10.93-.02-21.86-.02-32.79h.01ZM8.91,78.57h-.02c0,11.93.08,23.86-.03,35.78-.06,5.85,1.37,11.27,4.3,16.24,6.79,11.53,16.79,18.09,30.33,18.2,22.86.19,45.72-.01,68.57.1,6.26.03,11.95-1.34,17.47-4.37,11.83-6.5,18.2-16.47,18.39-29.8.33-23.52.03-47.05.15-70.57.03-6.2-1.3-11.94-4.49-17.19-6.8-11.21-16.57-17.85-29.92-17.97-22.53-.2-45.05.08-67.58-.14-6.95-.07-13.36,1.18-19.31,4.71-10.76,6.37-17.29,15.63-17.76,28.25-.45,12.24-.1,24.52-.1,36.77Z"/>
      <path class="cls-1" d="M78.39,35.26c25.61-.15,43.69,18.85,43.59,43.87-.09,24.63-17.95,43.45-43.48,43.49-25.52.04-43.66-18.86-43.59-43.88.07-24.68,18.02-43.59,43.47-43.49ZM113.88,79c-1.06-4.9-1.35-10.15-3.35-14.64-4.36-9.77-11.62-16.56-22.46-19.27-8.55-2.13-16.94-1.75-24.71,1.79-12.64,5.76-18.82,16.38-19.62,30.11-.26,4.39.26,8.65,1.65,13.01,1.99,6.26,5.07,11.43,9.98,15.74,8.1,7.11,17.67,8.97,27.94,7.98,7.86-.76,14.97-4,20.34-9.71,6.43-6.85,9.73-15.29,10.23-25.02Z"/>
      <path class="cls-1" d="M130.43,30.79c.04,2.14-1.75,4.07-3.89,4.2-2.26.13-4.43-1.91-4.41-4.15.02-2.13,2.22-4.25,4.33-4.16,1.99.08,3.92,2.09,3.96,4.11Z"/>
    </g>
  </g>
</svg>