<?xml version="1.0" encoding="UTF-8"?>
<svg id="Capa_2" data-name="Capa 2" xmlns="http://www.w3.org/2000/svg" viewBox="0 0 24 24">
  <defs>
    <style>
      .cls-1 {
        fill: #f3aa00;
      }
    </style>
  </defs>
  <g id="Capa_1-2" data-name="Capa 1">
    <g>
      <rect class="cls-1" y="0" width="24" height="24" rx="4.12" ry="4.12"/>
      <path d="m15.7,20.32h-7.39c-2.55,0-4.62-2.07-4.62-4.62v-7.39c0-2.55,2.07-4.62,4.62-4.62h7.39c2.55,0,4.62,2.07,4.62,4.62v7.39c0,2.55-2.07,4.62-4.62,4.62Zm-7.39-15.64c-2,0-3.62,1.63-3.62,3.62v7.39c0,2,1.63,3.62,3.62,3.62h7.39c2,0,3.62-1.63,3.62-3.62v-7.39c0-2-1.63-3.62-3.62-3.62h-7.39Z"/>
      <path d="m12,15.34c-1.84,0-3.34-1.5-3.34-3.34s1.5-3.34,3.34-3.34,3.34,1.5,3.34,3.34-1.5,3.34-3.34,3.34Zm0-5.68c-1.29,0-2.34,1.05-2.34,2.34s1.05,2.34,2.34,2.34,2.34-1.05,2.34-2.34-1.05-2.34-2.34-2.34Z"/>
      <circle cx="20.46" cy="3.54" r=".64"/>
    </g>
  </g>
</svg>