<?xml version="1.0" encoding="UTF-8"?>
<svg id="Capa_2" data-name="Capa 2" xmlns="http://www.w3.org/2000/svg" viewBox="0 0 46.62 61.01">
  <g id="Capa_1-2" data-name="Capa 1">
    <g>
      <path d="m23.15,60.95c-5.57,0-11.14-.14-16.7.05C3.29,61.12-.04,57.8,0,54.6c.13-9.38.04-18.76.05-28.13,0-2.8,1.75-5.32,4.41-5.76,1.43-.24,1.32-.92,1.43-1.92.28-2.57.37-5.23,1.15-7.66,1.47-4.59,4.75-7.8,9.18-9.64,5.89-2.46,11.61-1.8,16.86,1.74,4.69,3.17,6.86,7.86,7.31,13.41.08,1,.16,2,.4,2.97.1.4.55.86.94,1.01,3.85,1.48,4.7,3.65,4.77,7.14.18,8.59.16,17.18.02,25.77-.07,4.42-2.11,7.54-7.57,7.46-5.26-.07-10.53-.02-15.79-.02Zm17.48-5.85v-28.92H5.96v28.92h34.67Zm-5.77-34.9c.49-5.58-1.04-10.24-5.96-12.88-4.86-2.61-9.84-2.01-14.02,1.65-3.39,2.97-3.67,7.06-3.06,11.24h23.03Z"/>
      <path d="m23.06,35.16c3.33,0,5.68,2.23,5.69,5.39,0,3.26-2.49,5.7-5.59,5.92-2.71.2-5.99-2.81-5.74-5.64.3-3.45,2.23-5.67,5.64-5.67Z"/>
    </g>
  </g>
</svg>