<?xml version="1.0" encoding="UTF-8"?>
<svg id="Capa_2" data-name="Capa 2" xmlns="http://www.w3.org/2000/svg" viewBox="0 0 167.24 167.07">
  <defs>
    <style>
      .cls-1 {
        fill: #000;
        stroke-width: 0px;
      }
    </style>
  </defs>
  <g id="Capa_1-2" data-name="Capa 1">
    <g>
      <path class="cls-1" d="M167.24,83.52c.3,45.72-37.25,83.66-83.7,83.54C37.22,166.95-.12,129.19,0,83.3.12,37.75,37.24.12,83.51,0c46.56-.12,84.03,37.88,83.73,83.52ZM83.9,7.34c-42.83-.01-76.53,33.74-76.59,76-.06,42.43,33.24,76.03,75.8,76.33,43.52.3,76.64-33.87,76.87-75.75.23-42.26-33.2-76.38-76.08-76.58Z"/>
      <path class="cls-1" d="M60.99,43.68c21.71-1.78,43.87.52,64.35,8.43,7.02,2.88,16.38,6.36,19.49,13.51,2.24,5.29-1.1,12.06-6.68,13.45-5.02,1.29-10.7-1.43-15.45-3.33-7.31-3.01-14.63-6.07-22.38-7.43-18.64-3.02-37.67-3.36-56.28.01-4.3.57-9.2.78-13.01-1.25-7.13-3.47-7.07-13.76-.46-17.76,3.89-2.58,9.05-3.11,13.97-3.77,5.41-.71,10.82-1.46,16.26-1.82h.2ZM87.45,51.23c-16.26-1.95-32.97-.22-49.1,2.5-6.42,1.33-8.26,7.09.19,7.26,24.14-3.72,49.21-5,72.81,2.57,4.78,1.52,9.41,3.46,14.01,5.45,3.35,1.42,8.31,3.89,11.51,2.4,7.75-6.48-22.61-15.97-26.95-16.6-7.38-1.67-14.89-2.7-22.25-3.54l-.2-.02Z"/>
      <path class="cls-1" d="M68.49,72.2c16.8-.21,33.7,1.87,48.86,8.09,6.23,2.82,14.22,5.9,16.78,12.94,2.26,7.06-4.52,13.03-11.48,11.3-6.44-1.35-12.36-5.04-18.58-7.18-19.09-7.51-39.84-4.43-59.61-2.05-9.78.81-16.08-9.46-8.35-16.47,4.01-3.33,10.96-4,16.8-4.87,5.19-.7,10.16-1.56,15.38-1.76h.19ZM72.49,79.42c-9.13-.05-18.37.73-27.32,3-8.03,2.77-4.98,6.12,2.19,4.88,17.4-2.66,35.53-3.71,52.76.62,7.3,1.8,14.1,5.51,20.93,8.51,2.54.95,6.39,1.82,5.68-1.14-1.16-2.75-4.48-4.65-7.13-6.03-14.49-7.34-30.82-10.21-46.9-9.84h-.21Z"/>
      <path class="cls-1" d="M74.94,97.28c14.89-.04,30.15,3.51,42.76,11.74,12.25,8.53,3.68,22.39-9.82,15.92-15.99-7.84-31.28-10.71-48.87-6.7-5.02.97-11.11,2.46-15.58-.62-2.62-1.8-3.98-5.07-3.45-8.14,1.43-7.37,10.64-9.02,17.03-10.2,5.9-1.02,11.81-1.83,17.72-1.99h.2ZM116.58,118.98c1.35-2.45-8.6-6.88-10.72-7.76-17.46-7.71-37.99-9.32-55.93-2.78-2.95,1.51-2.63,2.97.89,2.89,4.48-.19,9.2-1.71,13.78-2.07,14.85-1.4,29.67.37,43.29,6.89,2.4,1.02,6.39,3.45,8.64,2.85l.05-.03Z"/>
    </g>
  </g>
</svg>