<?xml version="1.0" encoding="UTF-8"?>
<svg id="Capa_2" data-name="Capa 2" xmlns="http://www.w3.org/2000/svg" viewBox="0 0 311.55 205.23">
  <g id="Capa_1-2" data-name="Capa 1">
    <g>
      <g>
        <path d="m.74,157.45v-3.35h14.62v4.46c0,20.91,8.18,30.67,23.3,30.67s24.04-9.76,24.04-33.17v-47.39c-5.45,13.1-16.11,20.35-29.99,20.35C9.42,129.01,0,111.17,0,83.85v-31.78C0,21.12,13.88,4.4,38.91,4.4s39.16,16.73,39.16,47.67v104.54c0,31.78-13.13,48.51-38.91,48.51S.74,188.39.74,157.45Zm61.96-77.5v-29.27c0-20.35-8.43-30.67-23.79-30.67s-23.54,10.32-23.54,30.67v32.06c0,18.12,6.2,30.67,22.31,30.67s25.03-14.22,25.03-33.45Z"/>
        <path d="m234.22,157.45v-3.35h14.62v4.46c0,20.91,8.18,30.67,23.3,30.67s24.04-9.76,24.04-33.17v-47.39c-5.45,13.1-16.11,20.35-29.99,20.35-23.3,0-32.72-17.84-32.72-45.16v-31.78c0-30.94,13.88-47.67,38.91-47.67s39.16,16.73,39.16,47.67v104.54c0,31.78-13.13,48.51-38.91,48.51s-38.42-16.73-38.42-47.67Zm61.96-77.5v-29.27c0-20.35-8.43-30.67-23.79-30.67s-23.54,10.32-23.54,30.67v32.06c0,18.12,6.2,30.67,22.31,30.67s25.03-14.22,25.03-33.45Z"/>
      </g>
      <path d="m158.09,205.23c-13.66,0-26.4-5.17-35.89-14.56-10.57-10.47-16.16-25.22-16.16-42.67V43.54C106.04,14.96,125.68,0,145.08,0s39.04,14.96,39.04,43.54v95.12c0,21.07-13.51,32.1-26.86,32.1-7.1,0-13.97-3.12-18.84-8.57-5.25-5.86-8.02-14-8.02-23.53V43.04h13v95.62c0,13.19,6.96,19.1,13.86,19.1s13.86-5.91,13.86-19.1V43.54c0-20.99-13.5-30.54-26.04-30.54s-26.04,9.56-26.04,30.54v104.46c0,30.39,20.24,44.23,39.05,44.23s39.05-13.84,39.05-44.23V43.04h13v104.96c0,37.57-26.18,57.23-52.05,57.23Z"/>
    </g>
  </g>
</svg>