<?xml version="1.0" encoding="UTF-8"?>
<svg id="Capa_2" data-name="Capa 2" xmlns="http://www.w3.org/2000/svg" viewBox="0 0 15.58 23.37">
  <defs>
    <style>
      .cls-1 {
        fill: #000;
        stroke-width: 0px;
      }
    </style>
  </defs>
  <g id="Capa_1-2" data-name="Capa 1">
    <path class="cls-1" d="M1.3,14.28c.39,0,.65.13.91.39l6.49,6.49c.52.52.52,1.3,0,1.82-.52.52-1.3.52-1.82,0L.39,16.49c-.52-.52-.52-1.3,0-1.82.26-.26.52-.39.91-.39Z"/>
    <path class="cls-1" d="M14.28,14.28c.39,0,.65.13.91.39.52.52.52,1.3,0,1.82l-6.49,6.49c-.52.52-1.3.52-1.82,0-.52-.52-.52-1.3,0-1.82l6.49-6.49c.26-.26.52-.39.91-.39Z"/>
    <path class="cls-1" d="M7.79,0c.78,0,1.3.52,1.3,1.3v20.77c0,.78-.52,1.3-1.3,1.3s-1.3-.52-1.3-1.3V1.3c0-.78.52-1.3,1.3-1.3Z"/>
  </g>
</svg>