<svg width="33" height="23" viewBox="0 0 33 23" fill="none" xmlns="http://www.w3.org/2000/svg">
<path d="M12.7265 2.4155C12.7265 2.95234 12.5476 3.31024 12.1897 3.66813L3.2423 12.6155C2.52651 13.3313 1.45283 13.3313 0.737037 12.6155C0.0212479 11.8997 0.0212479 10.826 0.737037 10.1102L9.68441 1.16287C10.4002 0.447078 11.4739 0.447078 12.1897 1.16287C12.5476 1.52076 12.7265 1.87866 12.7265 2.4155Z" fill="black"/>
<path d="M12.7265 20.3106C12.7265 20.8475 12.5476 21.2054 12.1897 21.5633C11.4739 22.279 10.4002 22.279 9.68441 21.5633L0.737037 12.6159C0.0212475 11.9001 0.0212475 10.8264 0.737037 10.1106C1.45283 9.39483 2.52651 9.39483 3.2423 10.1106L12.1897 19.058C12.5476 19.4159 12.7265 19.7738 12.7265 20.3106Z" fill="black"/>
<path d="M32.4107 11.3629C32.4107 12.4366 31.6949 13.1523 30.6212 13.1523L1.98967 13.1523C0.915985 13.1523 0.200195 12.4366 0.200195 11.3629C0.200195 10.2892 0.915985 9.5734 1.98967 9.5734L30.6212 9.57339C31.6949 9.57339 32.4107 10.2892 32.4107 11.3629Z" fill="black"/>
</svg>
