<svg width="23" height="33" viewBox="0 0 23 33" fill="none" xmlns="http://www.w3.org/2000/svg">
<path d="M20.253 12.7841C19.7161 12.7841 19.3582 12.6052 19.0003 12.2473L10.053 3.29992C9.33717 2.58413 9.33717 1.51044 10.053 0.794655C10.7687 0.0788651 11.8424 0.0788651 12.5582 0.794655L21.5056 9.74202C22.2214 10.4578 22.2214 11.5315 21.5056 12.2473C21.1477 12.6052 20.7898 12.7841 20.253 12.7841Z" fill="black"/>
<path d="M2.35783 12.7841C1.82099 12.7841 1.4631 12.6052 1.1052 12.2473C0.389412 11.5315 0.389412 10.4578 1.1052 9.74202L10.0526 0.794655C10.7684 0.0788651 11.842 0.0788651 12.5578 0.794655C13.2736 1.51044 13.2736 2.58413 12.5578 3.29992L3.61046 12.2473C3.25257 12.6052 2.89467 12.7841 2.35783 12.7841Z" fill="black"/>
<path d="M11.3056 32.4683C10.2319 32.4683 9.51611 31.7525 9.51611 30.6789L9.51611 2.04729C9.51611 0.973602 10.2319 0.257813 11.3056 0.257813C12.3793 0.257813 13.0951 0.973602 13.0951 2.04729L13.0951 30.6789C13.0951 31.7525 12.3793 32.4683 11.3056 32.4683Z" fill="black"/>
</svg>
