<?xml version="1.0" encoding="UTF-8"?>
<svg id="Capa_2" data-name="Capa 2" xmlns="http://www.w3.org/2000/svg" viewBox="0 0 104.1 205.23">
  <g id="Capa_1-2" data-name="Capa 1">
    <path d="m52.05,205.23c-13.66,0-26.4-5.17-35.89-14.56C5.59,180.2,0,165.45,0,148V43.54C0,14.96,19.64,0,39.04,0s39.04,14.96,39.04,43.54v95.12c0,21.07-13.51,32.1-26.86,32.1-7.1,0-13.97-3.12-18.84-8.57-5.25-5.86-8.02-14-8.02-23.53V43.04h13v95.62c0,13.19,6.96,19.1,13.86,19.1s13.86-5.91,13.86-19.1V43.54c0-20.99-13.5-30.54-26.04-30.54s-26.04,9.56-26.04,30.54v104.46c0,30.39,20.24,44.23,39.05,44.23s39.05-13.84,39.05-44.23V43.04h13v104.96c0,37.57-26.18,57.23-52.05,57.23Z"/>
  </g>
</svg>