<?xml version="1.0" encoding="UTF-8"?>
<svg id="Capa_2" data-name="Capa 2" xmlns="http://www.w3.org/2000/svg" viewBox="0 0 979 207.27">
  <g id="Capa_1-2" data-name="Capa 1">
    <g>
      <g>
        <path d="m66.18,161.27H21.81l-7.19,43.21H0L33.96,9.33h20.82l34.45,195.14h-15.61l-7.44-43.21Zm-2.48-15.33L43.87,30.52l-19.33,115.41h39.16Z"/>
        <path d="m106.82,9.33h36.93c27.02,0,38.42,13.66,38.42,44.33v11.99c0,21.74-6.69,34.85-21.07,39.31v.56c15.12,3.9,21.07,17,21.07,40.14v35.41c0,8.36.5,16.73,2.48,23.42h-15.61c-1.24-5.58-2.23-11.71-2.23-23.7v-35.96c0-22.58-7.43-30.39-25.78-30.39h-18.84v90.04h-15.37V9.33Zm33.96,88.93c17.6,0,26.02-8.36,26.02-29.55v-13.66c0-21.19-6.69-30.11-23.54-30.11h-21.07v73.32h18.59Z"/>
        <path d="m204.22,161.27V52.27c0-28.44,13.63-45.72,37.67-45.72s38.17,17.28,38.17,45.72v20.07h-14.62v-20.91c0-18.96-9.17-29.27-23.3-29.27s-22.55,10.32-22.55,29.27v110.95c0,18.96,8.67,28.99,22.55,28.99s23.3-10.04,23.3-28.99v-26.48h14.62v25.37c0,28.71-13.63,46-38.17,46s-37.67-17.28-37.67-46Z"/>
        <path d="m300.89,9.33h15.37v85.58h47.34V9.33h15.37v195.14h-15.37v-93.95h-47.34v93.95h-15.37V9.33Z"/>
        <path d="m403.99,9.33h15.37v195.14h-15.37V9.33Z"/>
        <path d="m436.95,9.33h15.61l28.75,171.73,28.25-171.73h14.38l-32.72,195.14h-20.82L436.95,9.33Z"/>
        <path d="m538.57,159.6V54.22c0-30.94,13.88-47.67,38.91-47.67s38.91,16.73,38.91,47.67v105.38c0,30.94-13.88,47.67-38.91,47.67s-38.91-16.73-38.91-47.67Zm62.46,1.11V53.1c0-20.91-8.43-30.94-23.55-30.94s-23.54,10.04-23.54,30.94v107.61c0,20.91,8.43,30.67,23.54,30.67s23.55-9.76,23.55-30.67Z"/>
        <path d="m677.37,159.6v-3.35h14.62v4.46c0,20.91,8.18,30.67,23.3,30.67s24.04-9.76,24.04-33.17v-47.39c-5.45,13.1-16.11,20.35-29.99,20.35-23.3,0-32.72-17.84-32.72-45.16v-31.78c0-30.94,13.88-47.67,38.91-47.67s39.16,16.73,39.16,47.67v104.54c0,31.78-13.14,48.51-38.91,48.51s-38.42-16.73-38.42-47.67Zm61.96-77.5v-29.27c0-20.35-8.43-30.67-23.79-30.67s-23.55,10.32-23.55,30.67v32.06c0,18.12,6.2,30.67,22.31,30.67s25.03-14.22,25.03-33.45Z"/>
        <path d="m901.67,159.6v-3.35h14.62v4.46c0,20.91,8.18,30.67,23.3,30.67s24.04-9.76,24.04-33.17v-47.39c-5.45,13.1-16.11,20.35-29.99,20.35-23.3,0-32.72-17.84-32.72-45.16v-31.78c0-30.94,13.88-47.67,38.91-47.67s39.16,16.73,39.16,47.67v104.54c0,31.78-13.14,48.51-38.91,48.51s-38.42-16.73-38.42-47.67Zm61.96-77.5v-29.27c0-20.35-8.43-30.67-23.79-30.67s-23.55,10.32-23.55,30.67v32.06c0,18.12,6.2,30.67,22.31,30.67s25.03-14.22,25.03-33.45Z"/>
      </g>
      <path d="m830.65,205.23c-13.66,0-26.4-5.17-35.89-14.56-10.57-10.47-16.16-25.22-16.16-42.67V43.54c0-28.59,19.64-43.54,39.04-43.54s39.04,14.96,39.04,43.54v95.12c0,21.07-13.51,32.1-26.86,32.1-7.1,0-13.97-3.12-18.84-8.57-5.25-5.86-8.02-14-8.02-23.53V43.04h13v95.62c0,13.19,6.96,19.1,13.86,19.1s13.86-5.91,13.86-19.1V43.54c0-20.99-13.5-30.54-26.04-30.54s-26.04,9.56-26.04,30.54v104.46c0,30.39,20.24,44.23,39.05,44.23s39.05-13.84,39.05-44.23V43.04h13v104.96c0,37.57-26.18,57.23-52.05,57.23Z"/>
    </g>
  </g>
</svg>