<?xml version="1.0" encoding="UTF-8"?>
<svg id="Capa_2" data-name="Capa 2" xmlns="http://www.w3.org/2000/svg" xmlns:xlink="http://www.w3.org/1999/xlink" viewBox="0 0 679.65 690.38">
  <defs>
    <style>
      .cls-1 {
        fill: none;
      }

      .cls-1, .cls-2 {
        stroke-width: 0px;
      }

      .cls-3 {
        clip-path: url(#clippath);
      }

      .cls-2 {
        fill: #fff1e3;
      }
    </style>
    <clipPath id="clippath">
      <rect class="cls-1" width="679.65" height="690.38"/>
    </clipPath>
  </defs>
  <g id="Capa_1-2" data-name="Capa 1">
    <g class="cls-3">
      <g>
        <circle class="cls-2" cx="74.28" cy="3.5" r="10.59"/>
        <circle class="cls-2" cx="201.68" cy="3.5" r="10.59"/>
        <circle class="cls-2" cx="329.07" cy="3.5" r="10.59"/>
        <circle class="cls-2" cx="456.46" cy="3.5" r="10.59"/>
        <circle class="cls-2" cx="583.85" cy="3.5" r="10.59"/>
        <circle class="cls-2" cx="10.59" cy="35.35" r="10.59"/>
        <circle class="cls-2" cx="74.28" cy="67.2" r="10.59"/>
        <circle class="cls-2" cx="137.98" cy="35.35" r="10.59"/>
        <circle class="cls-2" cx="201.68" cy="67.2" r="10.59"/>
        <circle class="cls-2" cx="265.37" cy="35.35" r="10.59"/>
        <circle class="cls-2" cx="329.07" cy="67.2" r="10.59"/>
        <circle class="cls-2" cx="392.77" cy="35.35" r="10.59"/>
        <circle class="cls-2" cx="456.46" cy="67.2" r="10.59"/>
        <circle class="cls-2" cx="520.16" cy="35.35" r="10.59"/>
        <circle class="cls-2" cx="583.85" cy="67.2" r="10.59"/>
        <circle class="cls-2" cx="647.55" cy="35.35" r="10.59"/>
        <circle class="cls-2" cx="10.59" cy="99.05" r="10.59"/>
        <circle class="cls-2" cx="74.28" cy="130.89" r="10.59"/>
        <circle class="cls-2" cx="137.98" cy="99.05" r="10.59"/>
        <circle class="cls-2" cx="201.68" cy="130.89" r="10.59"/>
        <circle class="cls-2" cx="265.37" cy="99.05" r="10.59"/>
        <circle class="cls-2" cx="329.07" cy="130.89" r="10.59"/>
        <circle class="cls-2" cx="392.77" cy="99.05" r="10.59"/>
        <circle class="cls-2" cx="456.46" cy="130.89" r="10.59"/>
        <circle class="cls-2" cx="520.16" cy="99.05" r="10.59"/>
        <circle class="cls-2" cx="583.85" cy="130.89" r="10.59"/>
        <circle class="cls-2" cx="647.55" cy="99.05" r="10.59"/>
        <circle class="cls-2" cx="10.59" cy="162.74" r="10.59"/>
        <circle class="cls-2" cx="74.28" cy="194.59" r="10.59"/>
        <circle class="cls-2" cx="137.98" cy="162.74" r="10.59"/>
        <circle class="cls-2" cx="201.68" cy="194.59" r="10.59"/>
        <circle class="cls-2" cx="265.37" cy="162.74" r="10.59"/>
        <circle class="cls-2" cx="329.07" cy="194.59" r="10.59"/>
        <circle class="cls-2" cx="392.77" cy="162.74" r="10.59"/>
        <circle class="cls-2" cx="456.46" cy="194.59" r="10.59"/>
        <circle class="cls-2" cx="520.16" cy="162.74" r="10.59"/>
        <circle class="cls-2" cx="583.85" cy="194.59" r="10.59"/>
        <circle class="cls-2" cx="647.55" cy="162.74" r="10.59"/>
        <circle class="cls-2" cx="10.59" cy="226.44" r="10.59"/>
        <circle class="cls-2" cx="74.28" cy="258.29" r="10.59"/>
        <circle class="cls-2" cx="137.98" cy="226.44" r="10.59"/>
        <circle class="cls-2" cx="201.68" cy="258.29" r="10.59"/>
        <circle class="cls-2" cx="265.37" cy="226.44" r="10.59"/>
        <circle class="cls-2" cx="329.07" cy="258.29" r="10.59"/>
        <circle class="cls-2" cx="392.77" cy="226.44" r="10.59"/>
        <circle class="cls-2" cx="456.46" cy="258.29" r="10.59"/>
        <circle class="cls-2" cx="520.16" cy="226.44" r="10.59"/>
        <circle class="cls-2" cx="583.85" cy="258.29" r="10.59"/>
        <circle class="cls-2" cx="647.55" cy="226.44" r="10.59"/>
        <circle class="cls-2" cx="10.59" cy="290.13" r="10.59"/>
        <circle class="cls-2" cx="74.28" cy="321.98" r="10.59"/>
        <circle class="cls-2" cx="137.98" cy="290.13" r="10.59"/>
        <circle class="cls-2" cx="201.68" cy="321.98" r="10.59"/>
        <circle class="cls-2" cx="265.37" cy="290.13" r="10.59"/>
        <circle class="cls-2" cx="329.07" cy="321.98" r="10.59"/>
        <circle class="cls-2" cx="392.77" cy="290.13" r="10.59"/>
        <circle class="cls-2" cx="456.46" cy="321.98" r="10.59"/>
        <circle class="cls-2" cx="520.16" cy="290.13" r="10.59"/>
        <circle class="cls-2" cx="583.85" cy="321.98" r="10.59"/>
        <circle class="cls-2" cx="647.55" cy="290.13" r="10.59"/>
        <circle class="cls-2" cx="10.59" cy="353.83" r="10.59"/>
        <circle class="cls-2" cx="74.28" cy="385.68" r="10.59"/>
        <circle class="cls-2" cx="137.98" cy="353.83" r="10.59"/>
        <circle class="cls-2" cx="201.68" cy="385.68" r="10.59"/>
        <circle class="cls-2" cx="265.37" cy="353.83" r="10.59"/>
        <circle class="cls-2" cx="329.07" cy="385.68" r="10.59"/>
        <circle class="cls-2" cx="392.77" cy="353.83" r="10.59"/>
        <circle class="cls-2" cx="456.46" cy="385.68" r="10.59"/>
        <circle class="cls-2" cx="520.16" cy="353.83" r="10.59"/>
        <circle class="cls-2" cx="583.85" cy="385.68" r="10.59"/>
        <circle class="cls-2" cx="647.55" cy="353.83" r="10.59"/>
        <circle class="cls-2" cx="10.59" cy="417.53" r="10.59"/>
        <circle class="cls-2" cx="74.28" cy="449.37" r="10.59"/>
        <circle class="cls-2" cx="137.98" cy="417.53" r="10.59"/>
        <circle class="cls-2" cx="201.68" cy="449.37" r="10.59"/>
        <circle class="cls-2" cx="265.37" cy="417.53" r="10.59"/>
        <circle class="cls-2" cx="329.07" cy="449.37" r="10.59"/>
        <circle class="cls-2" cx="392.77" cy="417.53" r="10.59"/>
        <circle class="cls-2" cx="456.46" cy="449.37" r="10.59"/>
        <circle class="cls-2" cx="520.16" cy="417.53" r="10.59"/>
        <circle class="cls-2" cx="583.85" cy="449.37" r="10.59"/>
        <circle class="cls-2" cx="647.55" cy="417.53" r="10.59"/>
        <circle class="cls-2" cx="10.59" cy="481.22" r="10.59"/>
        <circle class="cls-2" cx="74.28" cy="513.07" r="10.59"/>
        <circle class="cls-2" cx="137.98" cy="481.22" r="10.59"/>
        <circle class="cls-2" cx="201.68" cy="513.07" r="10.59"/>
        <circle class="cls-2" cx="265.37" cy="481.22" r="10.59"/>
        <circle class="cls-2" cx="329.07" cy="513.07" r="10.59"/>
        <circle class="cls-2" cx="392.77" cy="481.22" r="10.59"/>
        <circle class="cls-2" cx="456.46" cy="513.07" r="10.59"/>
        <circle class="cls-2" cx="520.16" cy="481.22" r="10.59"/>
        <circle class="cls-2" cx="583.85" cy="513.07" r="10.59"/>
        <circle class="cls-2" cx="647.55" cy="481.22" r="10.59"/>
        <circle class="cls-2" cx="10.59" cy="544.92" r="10.59"/>
        <circle class="cls-2" cx="74.28" cy="576.77" r="10.59"/>
        <circle class="cls-2" cx="137.98" cy="544.92" r="10.59"/>
        <circle class="cls-2" cx="201.68" cy="576.77" r="10.59"/>
        <circle class="cls-2" cx="265.37" cy="544.92" r="10.59"/>
        <circle class="cls-2" cx="329.07" cy="576.77" r="10.59"/>
        <circle class="cls-2" cx="392.77" cy="544.92" r="10.59"/>
        <circle class="cls-2" cx="456.46" cy="576.77" r="10.59"/>
        <circle class="cls-2" cx="520.16" cy="544.92" r="10.59"/>
        <circle class="cls-2" cx="583.85" cy="576.77" r="10.59"/>
        <circle class="cls-2" cx="647.55" cy="544.92" r="10.59"/>
        <circle class="cls-2" cx="10.59" cy="608.62" r="10.59"/>
        <circle class="cls-2" cx="74.28" cy="640.46" r="10.59"/>
        <circle class="cls-2" cx="137.98" cy="608.62" r="10.59"/>
        <circle class="cls-2" cx="201.68" cy="640.46" r="10.59"/>
        <circle class="cls-2" cx="265.37" cy="608.62" r="10.59"/>
        <circle class="cls-2" cx="329.07" cy="640.46" r="10.59"/>
        <circle class="cls-2" cx="392.77" cy="608.62" r="10.59"/>
        <circle class="cls-2" cx="456.46" cy="640.46" r="10.59"/>
        <circle class="cls-2" cx="520.16" cy="608.62" r="10.59"/>
        <circle class="cls-2" cx="583.85" cy="640.46" r="10.59"/>
        <circle class="cls-2" cx="647.55" cy="608.62" r="10.59"/>
        <circle class="cls-2" cx="10.59" cy="672.31" r="10.59"/>
        <circle class="cls-2" cx="137.98" cy="672.31" r="10.59"/>
        <circle class="cls-2" cx="265.37" cy="672.31" r="10.59"/>
        <circle class="cls-2" cx="392.77" cy="672.31" r="10.59"/>
        <circle class="cls-2" cx="520.16" cy="672.31" r="10.59"/>
        <circle class="cls-2" cx="647.55" cy="672.31" r="10.59"/>
      </g>
    </g>
  </g>
</svg>