<?xml version="1.0" encoding="UTF-8"?>
<svg id="Capa_2" data-name="Capa 2" xmlns="http://www.w3.org/2000/svg" viewBox="0 0 46.96 61.48">
  <g id="Capa_1-2" data-name="Capa 1">
    <g>
      <path d="m35.05,20.4c1-7.3-3.04-12.94-8.92-14.16-6.3-1.31-12.16,1.47-14.53,8.99-1.02-.22-2.03-.51-3.06-.63-1.91-.23-2.53-.85-1.85-2.55C8.9,6.47,12.64,2.36,18.59.69c6.28-1.76,11.9-.1,16.67,4.02,2.75,2.37,4.57,5.57,5.05,9.33.24,1.88.44,3.77.76,5.64.07.41.5.95.88,1.09,3.88,1.35,4.84,3.8,4.9,7.31.14,8.6.13,17.2.01,25.79-.07,4.62-2.3,7.61-7.58,7.58-10.92-.07-21.83-.12-32.75.03C3.36,61.52-.06,58.25,0,54.85c.17-8.96.14-17.93.03-26.89-.07-5.78,2.74-7.43,7.65-7.5,8.96-.11,17.93-.03,26.89-.04.12,0,.24-.02.48-.04ZM5.97,55.45h34.95v-29.03H5.97v29.03Z"/>
      <path d="m17.63,41.15c0-3.49,2.19-5.71,5.62-5.71,3.43,0,5.72,2.25,5.73,5.63,0,3.18-2.6,5.73-5.84,5.72-3.25-.02-5.51-2.33-5.51-5.64Z"/>
    </g>
  </g>
</svg>